<svg width="16" height="24" viewBox="0 0 16 24" fill="none" xmlns="http://www.w3.org/2000/svg">
<path d="M8.00064 5.08984C4.80548 5.08984 2.20605 7.68928 2.20605 10.8844C2.20605 14.8496 7.39164 20.6708 7.61242 20.9167C7.8198 21.1477 8.18186 21.1473 8.38886 20.9167C8.60964 20.6708 13.7953 14.8496 13.7953 10.8844C13.7952 7.68928 11.1958 5.08984 8.00064 5.08984ZM8.00064 13.7998C6.39308 13.7998 5.08526 12.4919 5.08526 10.8844C5.08526 9.27684 6.39311 7.96903 8.00064 7.96903C9.60817 7.96903 10.916 9.27687 10.916 10.8844C10.916 12.492 9.60817 13.7998 8.00064 13.7998Z" fill="#575756"/>
</svg>
