<svg width="17" height="17" viewBox="0 0 17 17" fill="none" xmlns="http://www.w3.org/2000/svg">
<mask id="mask0_1_6519" style="mask-type:luminance" maskUnits="userSpaceOnUse" x="0" y="0" width="17" height="17">
<path d="M16.7998 0.219971H0.799805V16.22H16.7998V0.219971Z" fill="white"/>
</mask>
<g mask="url(#mask0_1_6519)">
<path d="M15.1998 1.81997H14.3998V1.01997C14.3998 0.539971 14.0798 0.219971 13.5998 0.219971C13.1198 0.219971 12.7998 0.539971 12.7998 1.01997V1.81997H4.7998V1.01997C4.7998 0.539971 4.4798 0.219971 3.9998 0.219971C3.5198 0.219971 3.1998 0.539971 3.1998 1.01997V1.81997H1.5998C1.1998 1.81997 0.799805 2.13997 0.799805 2.61997V13.82C0.799805 14.3 1.1998 14.62 1.5998 14.62H6.4798C5.9198 13.66 5.5998 12.54 5.5998 11.42C5.5998 7.89997 8.4798 5.01997 11.9998 5.01997C13.5198 5.01997 14.8798 5.57997 15.9998 6.45997V2.61997C15.9998 2.21997 15.5998 1.81997 15.1998 1.81997Z" fill="#D6D7D8"/>
<path d="M12.0002 6.61987C9.36019 6.61987 7.2002 8.77987 7.2002 11.4199C7.2002 14.0599 9.36019 16.2199 12.0002 16.2199C14.6402 16.2199 16.8002 14.0599 16.8002 11.4199C16.8002 8.77987 14.6402 6.61987 12.0002 6.61987ZM13.6002 12.2199H12.0002C11.5202 12.2199 11.2002 11.8999 11.2002 11.4199V9.01987C11.2002 8.53987 11.5202 8.21987 12.0002 8.21987C12.4802 8.21987 12.8002 8.53987 12.8002 9.01987V10.6199H13.6002C14.0802 10.6199 14.4002 10.9399 14.4002 11.4199C14.4002 11.8999 14.0802 12.2199 13.6002 12.2199Z" fill="#D6D7D8"/>
</g>
</svg>
