<svg width="21" height="23" viewBox="0 0 21 23" fill="none" xmlns="http://www.w3.org/2000/svg">
<path d="M9.11144 17.8258C9.10898 17.8258 9.10611 17.8258 9.10365 17.8258C9.00193 17.8237 8.90596 17.7803 8.83705 17.7056L1.80451 10.0586C1.68392 9.92739 1.67285 9.72969 1.77826 9.58573C1.88367 9.44217 2.07562 9.39295 2.23722 9.46842L8.67381 12.4823C8.72795 12.5077 8.79193 12.4954 8.83336 12.4523L18.6517 2.19061C18.7846 2.05157 19.002 2.03639 19.1529 2.15616C19.3039 2.27592 19.3387 2.49084 19.2333 2.65204L9.46664 17.6137C9.45269 17.6355 9.43629 17.6552 9.41824 17.6736L9.37517 17.7167C9.30504 17.7864 9.20988 17.8258 9.11144 17.8258Z" fill="#34D674"/>
</svg>
