<svg width="16" height="17" viewBox="0 0 16 17" fill="none" xmlns="http://www.w3.org/2000/svg">
<g clip-path="url(#clip0_1_6735)">
<path d="M8.00032 0.886719C6.54993 0.886719 5.1321 1.31681 3.92614 2.12261C2.72018 2.9284 1.78025 4.07371 1.22521 5.4137C0.670169 6.7537 0.524945 8.22818 0.807903 9.65071C1.09086 11.0732 1.78929 12.3799 2.81488 13.4055C3.84046 14.4311 5.14714 15.1295 6.56966 15.4125C7.99219 15.6954 9.46668 15.5502 10.8066 14.9952C12.1466 14.4401 13.2919 13.5002 14.0977 12.2942C14.9035 11.0883 15.3336 9.67045 15.3336 8.22005C15.3313 6.27583 14.558 4.4119 13.1832 3.03713C11.8084 1.66236 9.94454 0.889013 8.00032 0.886719ZM10.4716 10.6914C10.3466 10.8164 10.1771 10.8866 10.0003 10.8866C9.82355 10.8866 9.65401 10.8164 9.52899 10.6914L7.52899 8.69138C7.40396 8.56639 7.3337 8.39685 7.33366 8.22005V4.22005C7.33366 4.04324 7.4039 3.87367 7.52892 3.74864C7.65394 3.62362 7.82351 3.55338 8.00032 3.55338C8.17714 3.55338 8.34671 3.62362 8.47173 3.74864C8.59675 3.87367 8.66699 4.04324 8.66699 4.22005V7.94405L10.4716 9.74872C10.5966 9.87373 10.6668 10.0433 10.6668 10.2201C10.6668 10.3968 10.5966 10.5664 10.4716 10.6914Z" fill="#D6D7D8"/>
</g>
<defs>
<clipPath id="clip0_1_6735">
<rect width="16" height="16" fill="white" transform="translate(0 0.219971)"/>
</clipPath>
</defs>
</svg>
