<svg width="17" height="13" viewBox="0 0 17 13" fill="none" xmlns="http://www.w3.org/2000/svg">
<path fill-rule="evenodd" clip-rule="evenodd" d="M2.80356 1.40378L7.12606 5.72816C8.06881 6.66909 9.60987 6.66991 10.5534 5.72816L14.8759 1.40378C14.9194 1.36025 14.913 1.28856 14.8625 1.25335C14.4217 0.945877 13.8853 0.763596 13.3075 0.763596H4.372C3.79415 0.763596 3.25775 0.945908 2.81687 1.25335C2.76637 1.28856 2.76003 1.36025 2.80356 1.40378ZM1.64844 3.48713C1.64844 3.03275 1.76109 2.60344 1.95953 2.22609C1.99056 2.16706 2.06922 2.15513 2.11637 2.20228L6.38415 6.47006C7.73562 7.8235 9.94306 7.82428 11.2953 6.47006L15.5631 2.20228C15.6102 2.15513 15.6889 2.16706 15.7199 2.22609C15.9183 2.60344 16.031 3.03278 16.031 3.48713V9.17266C16.031 10.6756 14.8085 11.8962 13.3075 11.8962H4.372C2.871 11.8962 1.64844 10.6756 1.64844 9.17266V3.48713Z" fill="black"/>
</svg>
