<svg width="21" height="21" viewBox="0 0 21 21" fill="none" xmlns="http://www.w3.org/2000/svg">
<path d="M18.8336 13.8006C18.8336 16.8339 17.0253 18.6423 13.9919 18.6423H13.0003C12.5419 18.6423 12.1669 18.2673 12.1669 17.8089V13.0006C12.1669 12.7756 12.3503 12.5839 12.5753 12.5839L14.0419 12.5589C14.1586 12.5506 14.2586 12.4673 14.2836 12.3506L14.5753 10.7589C14.6003 10.6089 14.4836 10.4673 14.3253 10.4673L12.5503 10.4923C12.3169 10.4923 12.1336 10.3089 12.1253 10.0839L12.092 8.04226C12.092 7.90893 12.2003 7.79227 12.3419 7.79227L14.3419 7.75893C14.4836 7.75893 14.592 7.65061 14.592 7.50894L14.5586 5.50892C14.5586 5.36725 14.4503 5.25893 14.3086 5.25893L12.0586 5.29227C10.6753 5.31727 9.57533 6.45059 9.60033 7.83393L9.64199 10.1256C9.65032 10.3589 9.467 10.5423 9.23366 10.5506L8.23365 10.5673C8.09199 10.5673 7.98366 10.6756 7.98366 10.8173L8.00866 12.4006C8.00866 12.5423 8.11699 12.6506 8.25865 12.6506L9.25866 12.6339C9.492 12.6339 9.67531 12.8173 9.68365 13.0423L9.75864 17.7923C9.76698 18.2589 9.39198 18.6423 8.92531 18.6423H7.00865C3.97532 18.6423 2.16699 16.8339 2.16699 13.7923V6.81726C2.16699 3.78393 3.97532 1.97559 7.00865 1.97559H13.9919C17.0253 1.97559 18.8336 3.78393 18.8336 6.81726V13.8006Z" fill="white"/>
</svg>
