<svg width="25" height="25" viewBox="0 0 25 25" fill="none" xmlns="http://www.w3.org/2000/svg">
<path d="M21.1008 6.83779C21.1005 6.83135 21.0998 6.8249 21.0987 6.81849C21.0737 6.78278 21.043 6.75205 21.0172 6.71705C20.8305 6.46268 20.6328 6.21785 20.4242 5.98252C20.367 5.91821 20.3099 5.85462 20.2513 5.79174C20.0365 5.56169 19.8112 5.34231 19.5754 5.13369C19.5318 5.09509 19.4911 5.05511 19.4475 5.01722C18.8664 4.5194 18.2301 4.08977 17.5512 3.73685C17.524 3.72257 17.4954 3.71043 17.4676 3.69611C17.1652 3.54246 16.8552 3.40435 16.5387 3.28239C16.4672 3.25669 16.4022 3.23236 16.3343 3.21093C16.0528 3.10949 15.767 3.02065 15.4769 2.94441C15.3912 2.92155 15.3054 2.89798 15.2183 2.87797C14.9325 2.81153 14.6467 2.76079 14.3544 2.71934C14.2658 2.70649 14.1787 2.68932 14.0893 2.67861C13.3366 2.58713 12.5756 2.58713 11.8229 2.67861C11.7336 2.68932 11.6464 2.70649 11.5578 2.71934C11.2656 2.76079 10.9769 2.81153 10.694 2.87797C10.6068 2.89798 10.5211 2.92155 10.4353 2.94441C10.1433 3.02061 9.85755 3.10945 9.57793 3.21093C9.50647 3.23521 9.44145 3.25954 9.37358 3.28239C9.05712 3.40435 8.74706 3.54242 8.44471 3.69611C8.41683 3.71039 8.38827 3.72253 8.3611 3.73685C7.67991 4.0894 7.0415 4.51898 6.45835 5.01722C6.41477 5.05507 6.37403 5.09509 6.33045 5.13369C6.09228 5.34327 5.86696 5.56265 5.65453 5.79174C5.59596 5.85462 5.53877 5.91821 5.48162 5.98252C5.27251 6.21735 5.07482 6.46218 4.8886 6.71701C4.86289 6.75201 4.83216 6.78274 4.80713 6.81845C4.80386 6.82469 4.80097 6.83114 4.79854 6.83775C2.33408 10.2916 2.33408 14.929 4.79854 18.3828C4.80097 18.3894 4.80382 18.3958 4.80713 18.4021C4.83212 18.4378 4.86285 18.4685 4.8886 18.5035C5.07486 18.7579 5.27251 19.0027 5.48162 19.238C5.53877 19.3023 5.59596 19.3659 5.65453 19.4288C5.86984 19.6589 6.09512 19.8782 6.33045 20.0869C6.37403 20.1255 6.41477 20.1654 6.45835 20.2033C7.03945 20.7012 7.67572 21.1308 8.35466 21.4837C8.38183 21.498 8.41038 21.5101 8.43826 21.5244C8.74062 21.6781 9.05063 21.8162 9.36714 21.9382C9.4386 21.9639 9.50362 21.9882 9.57148 22.0096C9.85299 22.1111 10.1388 22.1999 10.4289 22.2761C10.5146 22.299 10.6004 22.3226 10.6875 22.3426C10.9733 22.409 11.2591 22.4598 11.5514 22.5012C11.6399 22.5141 11.7271 22.5312 11.8164 22.5419C12.5692 22.6334 13.3301 22.6334 14.0829 22.5419C14.1722 22.5312 14.2594 22.5141 14.348 22.5012C14.6402 22.4598 14.9289 22.409 15.2118 22.3426C15.299 22.3226 15.3847 22.299 15.4705 22.2761C15.763 22.1999 16.0488 22.1111 16.3279 22.0096C16.3994 21.9853 16.4644 21.961 16.5322 21.9382C16.8487 21.8162 17.1588 21.6781 17.4611 21.5244C17.489 21.5102 17.5175 21.498 17.5447 21.4837C18.2237 21.1307 18.8599 20.7012 19.441 20.2033C19.4846 20.1654 19.5253 20.1255 19.5689 20.0869C19.8071 19.8777 20.0324 19.6584 20.2448 19.4288C20.3034 19.3659 20.3606 19.3023 20.4178 19.238C20.6269 19.0027 20.8246 18.7579 21.0108 18.5035C21.0365 18.4685 21.0672 18.4378 21.0922 18.4021C21.0955 18.3958 21.0984 18.3894 21.1008 18.3828C23.5653 14.929 23.5653 10.2916 21.1008 6.83779ZM20.2856 8.18968C20.9689 9.31507 21.3815 10.5838 21.4909 11.8958H17.211C17.1586 11.0445 17.0247 10.2001 16.8109 9.37435C18.0199 9.14794 19.1901 8.74896 20.2856 8.18968ZM14.771 4.23341C14.811 4.24271 14.8496 4.25556 14.8896 4.26486C15.1454 4.32489 15.3991 4.39347 15.647 4.47921C15.6849 4.49206 15.722 4.50709 15.7592 4.52066C16.005 4.6064 16.2472 4.70143 16.4844 4.80647C16.5259 4.82577 16.5666 4.84721 16.6081 4.86651C16.8353 4.97465 17.0572 5.09158 17.274 5.21734L17.4169 5.30379C17.6226 5.42956 17.8227 5.56412 18.017 5.70751C18.0671 5.74393 18.1171 5.77897 18.1664 5.81895C18.3569 5.96184 18.5394 6.11498 18.7137 6.27839C18.7594 6.31983 18.8066 6.36057 18.8516 6.40344C19.0345 6.57706 19.2088 6.76068 19.3775 6.95075C19.3989 6.97574 19.4218 6.9986 19.4432 7.02221C18.4757 7.48328 17.4508 7.81251 16.3958 8.00107C15.9071 6.65752 15.2615 5.37635 14.4724 4.18418C14.5716 4.20202 14.6731 4.21202 14.771 4.23341ZM10.121 11.8958C10.1774 11.1227 10.309 10.3569 10.514 9.60939C11.3235 9.70555 12.1381 9.75324 12.9533 9.75227C13.7693 9.75202 14.5846 9.70312 15.3948 9.60579C15.5994 10.3546 15.7303 11.1215 15.7856 11.8958H10.121ZM15.7856 13.3248C15.7293 14.0979 15.5976 14.8637 15.3926 15.6112C14.5831 15.5151 13.7685 15.4674 12.9533 15.4684C12.1373 15.4674 11.3221 15.5151 10.5118 15.6112C10.3074 14.8637 10.1765 14.0979 10.121 13.3248H15.7856ZM12.9533 4.50211C13.7664 5.65455 14.4351 6.90235 14.9446 8.21756C14.2832 8.28781 13.6185 8.32311 12.9533 8.32331C12.2888 8.32252 11.6248 8.28702 10.9641 8.21685C11.4742 6.90252 12.1421 5.65513 12.9533 4.50211ZM6.5299 6.94999C6.69782 6.75992 6.87286 6.5763 7.05577 6.40268C7.10078 6.35981 7.14796 6.31908 7.19368 6.27763C7.36993 6.11712 7.55238 5.96397 7.74099 5.8182C7.79031 5.78031 7.84029 5.74673 7.89032 5.70675C8.08466 5.56386 8.28474 5.42927 8.49051 5.30304L8.6334 5.21659C8.85014 5.0899 9.07211 4.97293 9.29931 4.86575C9.34076 4.84645 9.3815 4.82502 9.42294 4.80572C9.66015 4.69854 9.90239 4.60351 10.1482 4.5199C10.1853 4.50634 10.2197 4.49131 10.2603 4.47845C10.5083 4.39556 10.7605 4.32698 11.0177 4.2641C11.0577 4.25481 11.0963 4.24196 11.137 4.23337C11.2349 4.21194 11.3364 4.20193 11.4357 4.18406C10.6463 5.37643 10.0005 6.65786 9.51153 8.00166C8.45656 7.8131 7.4316 7.48387 6.46417 7.0228C6.48561 6.99785 6.50846 6.97499 6.5299 6.94999ZM5.62104 8.18968C6.71629 8.74892 7.88622 9.1479 9.09497 9.37435C8.88149 10.2002 8.74773 11.0445 8.69557 11.8958H4.41568C4.52512 10.5838 4.93775 9.31507 5.62104 8.18968ZM5.62104 17.031C4.93771 15.9056 4.52508 14.6369 4.41568 13.3248H8.69557C8.74798 14.1762 8.88196 15.0206 9.09568 15.8463C7.88672 16.0727 6.71654 16.4717 5.62104 17.031ZM11.1356 20.9872C11.0956 20.9779 11.057 20.9651 11.017 20.9558C10.7612 20.8957 10.5076 20.8272 10.2596 20.7414C10.2217 20.7286 10.1846 20.7135 10.1474 20.7C9.90164 20.6142 9.65944 20.5192 9.42219 20.4142C9.38074 20.3949 9.34001 20.3734 9.29856 20.3541C9.07136 20.246 8.84938 20.1291 8.63264 20.0033L8.48976 19.9168C8.28399 19.7911 8.08391 19.6565 7.88957 19.5131C7.83954 19.4767 7.78955 19.4417 7.74024 19.4017C7.54971 19.2588 7.36725 19.1057 7.19293 18.9422C7.14721 18.9008 7.10003 18.8601 7.05502 18.8172C6.87211 18.6436 6.69778 18.46 6.52915 18.2699C6.50771 18.2449 6.48485 18.222 6.46342 18.1984C7.43089 17.7374 8.4558 17.4081 9.51078 17.2196C9.99952 18.5631 10.6451 19.8443 11.4342 21.0365C11.3349 21.0187 11.2335 21.0087 11.1356 20.9872ZM12.9533 20.7186C12.1402 19.5661 11.4714 18.3183 10.9619 17.0031C12.2852 16.8607 13.6199 16.8607 14.9431 17.0031C14.4331 18.3174 13.7645 19.5655 12.9533 20.7186ZM19.3767 18.2706C19.2088 18.4607 19.0338 18.6443 18.8508 18.818C18.8058 18.8608 18.7587 18.9016 18.7129 18.943C18.5367 19.104 18.3542 19.2572 18.1656 19.4024C18.1163 19.4403 18.0663 19.4775 18.0163 19.5139C17.822 19.6568 17.6219 19.7914 17.4161 19.9176L17.2732 20.004C17.0569 20.1303 16.835 20.2472 16.6073 20.3549C16.5659 20.3742 16.5251 20.3956 16.4837 20.4149C16.2465 20.5221 16.0042 20.6171 15.7584 20.7007C15.7213 20.7143 15.687 20.7293 15.6463 20.7422C15.3983 20.8251 15.1461 20.8936 14.8889 20.9565C14.8489 20.9658 14.8103 20.9787 14.7696 20.9873C14.6717 21.0087 14.5702 21.0187 14.4709 21.0366C15.26 19.8444 15.9056 18.5632 16.3943 17.2197C17.4493 17.4082 18.4743 17.7375 19.4417 18.1985C19.421 18.2228 19.3982 18.2456 19.3767 18.2706ZM20.2856 17.031C19.1903 16.4718 18.0204 16.0728 16.8116 15.8463C17.0251 15.0205 17.1589 14.1762 17.211 13.3248H21.4909C21.3815 14.6369 20.9689 15.9056 20.2856 17.031Z" fill="black"/>
</svg>
