<svg width="60" height="61" viewBox="0 0 60 61" fill="none" xmlns="http://www.w3.org/2000/svg">
<g clip-path="url(#clip0_1_7545)">
<g clip-path="url(#clip1_1_7545)">
<g clip-path="url(#clip2_1_7545)">
<mask id="mask0_1_7545" style="mask-type:luminance" maskUnits="userSpaceOnUse" x="0" y="0" width="60" height="61">
<path d="M60 0.0898438H0V60.0898H60V0.0898438Z" fill="white"/>
</mask>
<g mask="url(#mask0_1_7545)">
<path d="M41.5317 40.4496H37.9354L36.0672 39.6182V37.3498C38.6829 35.9087 40.735 33.5664 41.8028 30.7442H43.4054C47.2219 30.7442 50.3269 27.6392 50.3269 23.8227C50.3269 21.3584 49.0312 19.1921 47.0864 17.9655V17.1762C47.0865 7.75472 39.4215 0.0898438 30 0.0898438C20.5785 0.0898438 12.9135 7.75472 12.9135 17.1763V17.965C10.9682 19.1916 9.67219 21.358 9.67219 23.8227C9.67219 27.6392 12.7772 30.7442 16.5936 30.7442H18.1971C19.2649 33.5664 21.317 35.9087 23.9327 37.3498V39.6088L22.0436 40.4495H18.4682C8.2848 40.4496 0 48.7346 0 58.9179C0 59.565 0.524648 60.0898 1.17188 60.0898H24.7266C25.3738 60.0898 25.8984 59.565 25.8984 58.9179C25.8984 58.2708 25.3738 57.746 24.7266 57.746H2.38582C2.97012 49.6475 9.56227 43.1876 17.7158 42.8112C17.7128 42.8211 17.7086 42.8304 17.7057 42.8403C17.6107 43.1742 17.6687 43.5331 17.8639 43.8202L23.4075 51.9699C23.6039 52.2586 23.9188 52.4447 24.2664 52.4775C24.3032 52.4809 24.34 52.4827 24.3766 52.4827C24.6859 52.4827 24.9844 52.3602 25.2052 52.1394L29.9896 47.355L34.7739 52.1394C34.9946 52.3602 35.2932 52.4827 35.6024 52.4827C35.6389 52.4827 35.6757 52.4809 35.7125 52.4775C36.0602 52.4447 36.3751 52.2586 36.5715 51.9699L42.1152 43.8202C42.3104 43.5332 42.3683 43.1741 42.2734 42.8403C42.2705 42.8301 42.2663 42.8206 42.2631 42.8105C50.4264 43.1767 57.0294 49.6407 57.6142 57.7462H35.2734C34.6263 57.7462 34.1016 58.2709 34.1016 58.918C34.1016 59.5652 34.6263 60.0899 35.2734 60.0899H58.8281C59.4752 60.0899 60 59.5652 60 58.918C60 48.7346 51.7152 40.4496 41.5317 40.4496ZM40.2465 18.3262C37.8389 17.9956 35.5795 17.0363 33.6599 15.5175C33.2391 15.1845 32.6455 15.18 32.2195 15.5069C29.7021 17.4384 26.6906 18.4593 23.5109 18.4593C22.2347 18.4593 20.9763 18.2893 19.7575 17.9589V17.3631C19.7575 11.7156 24.352 7.12109 29.9995 7.12109C35.647 7.12109 40.2417 11.7156 40.2417 17.3631C40.2417 17.3631 40.2441 18.2948 40.2465 18.3262ZM43.4055 28.4005H42.6137V19.245H43.4055C45.9298 19.245 47.9832 21.2985 47.9832 23.8228C47.9832 26.3469 45.9298 28.4005 43.4055 28.4005ZM30 2.43359C38.0809 2.43359 44.663 8.96902 44.7409 17.0318C44.3086 16.947 43.8623 16.9013 43.4054 16.9013H42.5761C42.3321 10.1746 36.7848 4.77734 29.9995 4.77734C23.2143 4.77734 17.667 10.1746 17.423 16.9013H16.5938C16.1372 16.9013 15.6913 16.9469 15.2591 17.0317C15.3371 8.96902 21.9192 2.43359 30 2.43359ZM17.3855 28.4005H16.5938C14.0695 28.4005 12.0161 26.3469 12.0161 23.8227C12.0161 21.2985 14.0695 19.2449 16.5938 19.2449H17.3856L17.3855 28.4005ZM19.7292 26.2935V20.3709C20.9639 20.6577 22.2301 20.803 23.5109 20.803C26.9114 20.803 30.1471 19.7993 32.9232 17.8915C35.1053 19.4295 37.6157 20.3843 40.2698 20.6907V26.3566C40.2632 27.4551 40.0832 28.5132 39.7559 29.5049H34.1597C33.6755 28.1357 32.3686 27.1518 30.8358 27.1518H29.267C27.3233 27.1518 25.7421 28.7331 25.7421 30.6768C25.7421 32.6205 27.3233 34.2018 29.267 34.2018H30.8358C32.3687 34.2018 33.6756 33.2179 34.1597 31.8487H38.6348C36.805 34.6836 33.618 36.5642 30 36.5642C24.3367 36.5642 19.7292 31.9568 19.7292 26.2935ZM32.0172 30.6768C32.0172 31.3282 31.4873 31.858 30.8359 31.858H29.2671C28.6158 31.858 28.086 31.3282 28.086 30.6768C28.086 30.0253 28.6158 29.4955 29.2671 29.4955H30.8359C31.4872 29.4955 32.0172 30.0253 32.0172 30.6768ZM30 38.9079C31.2956 38.9079 32.546 38.7113 33.7234 38.3468V40.3064L29.9896 44.0403L26.2765 40.3273V38.3468C27.454 38.7113 28.7044 38.9079 30 38.9079ZM24.549 49.4809L20.5907 43.6616L24.5389 41.9045L28.3322 45.6978L24.549 49.4809ZM35.43 49.4809L31.6468 45.6978L35.4401 41.9045L39.3885 43.6616L35.43 49.4809Z" fill="#F2F2F2"/>
<path d="M30 57.7461C29.6918 57.7461 29.3895 57.8714 29.1715 58.0895C28.9535 58.3075 28.8281 58.6098 28.8281 58.918C28.8281 59.2262 28.9534 59.5286 29.1715 59.7464C29.3895 59.9644 29.6918 60.0899 30 60.0899C30.3082 60.0899 30.6105 59.9645 30.8284 59.7464C31.0465 59.5286 31.1719 59.2262 31.1719 58.918C31.1719 58.6098 31.0465 58.3075 30.8284 58.0895C30.6105 57.8714 30.3082 57.7461 30 57.7461Z" fill="#F2F2F2"/>
</g>
</g>
</g>
</g>
<defs>
<clipPath id="clip0_1_7545">
<rect width="60" height="60" fill="white" transform="translate(0 0.0898438)"/>
</clipPath>
<clipPath id="clip1_1_7545">
<rect width="60" height="60" fill="white" transform="translate(0 0.0898438)"/>
</clipPath>
<clipPath id="clip2_1_7545">
<rect width="60" height="60" fill="white" transform="translate(0 0.0898438)"/>
</clipPath>
</defs>
</svg>
