<svg width="16" height="17" viewBox="0 0 16 17" fill="none" xmlns="http://www.w3.org/2000/svg">
<g clip-path="url(#clip0_1_7497)">
<path d="M7.99935 0.756836C6.54895 0.756836 5.13113 1.18693 3.92517 1.99272C2.71921 2.79852 1.77928 3.94383 1.22423 5.28382C0.669193 6.62381 0.523969 8.0983 0.806927 9.52083C1.08988 10.9433 1.78832 12.25 2.8139 13.2756C3.83949 14.3012 5.14616 14.9996 6.56869 15.2826C7.99122 15.5655 9.46571 15.4203 10.8057 14.8653C12.1457 14.3102 13.291 13.3703 14.0968 12.1643C14.9026 10.9584 15.3327 9.54056 15.3327 8.09017C15.3304 6.14595 14.557 4.28202 13.1823 2.90725C11.8075 1.53248 9.94357 0.75913 7.99935 0.756836ZM10.4707 10.5615C10.3457 10.6865 10.1761 10.7567 9.99935 10.7567C9.82257 10.7567 9.65304 10.6865 9.52802 10.5615L7.52802 8.5615C7.40298 8.43651 7.33272 8.26696 7.33268 8.09017V4.09017C7.33268 3.91336 7.40292 3.74379 7.52795 3.61876C7.65297 3.49374 7.82254 3.4235 7.99935 3.4235C8.17616 3.4235 8.34573 3.49374 8.47075 3.61876C8.59578 3.74379 8.66602 3.91336 8.66602 4.09017V7.81417L10.4707 9.61883C10.5957 9.74385 10.6659 9.91339 10.6659 10.0902C10.6659 10.2669 10.5957 10.4365 10.4707 10.5615Z" fill="#575756"/>
</g>
<defs>
<clipPath id="clip0_1_7497">
<rect width="16" height="16" fill="white" transform="translate(0 0.0898438)"/>
</clipPath>
</defs>
</svg>
