<svg width="21" height="21" viewBox="0 0 21 21" fill="none" xmlns="http://www.w3.org/2000/svg">
<path d="M13.991 1.97559H7.00769C3.97436 1.97559 2.16602 3.78393 2.16602 6.81726V13.7923C2.16602 16.8339 3.97436 18.6423 7.00769 18.6423H13.9827C17.016 18.6423 18.8243 16.8339 18.8243 13.8006V6.81726C18.8327 3.78393 17.0243 1.97559 13.991 1.97559ZM10.4994 13.5423C8.71602 13.5423 7.26602 12.0923 7.26602 10.3089C7.26602 8.52559 8.71602 7.07559 10.4994 7.07559C12.2827 7.07559 13.7327 8.52559 13.7327 10.3089C13.7327 12.0923 12.2827 13.5423 10.4994 13.5423ZM15.4327 6.04226C15.391 6.14226 15.3327 6.23393 15.2577 6.31726C15.1743 6.39226 15.0827 6.45059 14.9827 6.49226C14.8827 6.53393 14.7743 6.55893 14.666 6.55893C14.441 6.55893 14.2327 6.47559 14.0743 6.31726C13.9993 6.23393 13.941 6.14226 13.8993 6.04226C13.8577 5.94226 13.8327 5.83393 13.8327 5.72559C13.8327 5.61726 13.8577 5.50893 13.8993 5.40893C13.941 5.30059 13.9993 5.21726 14.0743 5.13393C14.266 4.94226 14.5577 4.85059 14.8243 4.90893C14.8827 4.91726 14.9327 4.93393 14.9827 4.95893C15.0327 4.97559 15.0827 5.00059 15.1327 5.03393C15.1743 5.05893 15.216 5.10059 15.2577 5.13393C15.3327 5.21726 15.391 5.30059 15.4327 5.40893C15.4743 5.50893 15.4993 5.61726 15.4993 5.72559C15.4993 5.83393 15.4743 5.94226 15.4327 6.04226Z" fill="white"/>
</svg>
