<svg width="61" height="61" viewBox="0 0 61 61" fill="none" xmlns="http://www.w3.org/2000/svg">
<g clip-path="url(#clip0_1_7558)">
<path d="M53.5165 48.9061C52.8313 48.9061 52.1976 49.1071 51.6507 49.437L43.0832 41.1692C45.6142 38.1782 47.1469 34.3154 47.1469 30.0904C47.1469 25.8315 45.5875 21.9428 43.02 18.942L51.1524 10.5154C51.7889 11.0661 52.6087 11.4111 53.5165 11.4111C55.5215 11.4111 57.1469 9.78574 57.1469 7.78063C57.1469 5.77559 55.5215 4.15017 53.5165 4.15017C51.5114 4.15017 49.886 5.77559 49.886 7.78063C49.886 8.46634 50.0874 9.10051 50.4176 9.64762L42.2575 18.103C39.2633 15.0359 35.1313 13.0989 30.5427 12.9491V8.79075C31.802 8.5295 32.7484 7.41456 32.7484 6.07796C32.7484 4.5474 31.5076 3.30664 29.9771 3.30664C28.4466 3.30664 27.2059 4.5474 27.2059 6.07796C27.2059 7.41428 28.152 8.52888 29.4107 8.79047V12.9491C24.8694 13.0976 20.7717 14.9928 17.7851 18.0058L9.78061 10.2808C10.3312 9.6443 10.6761 8.82475 10.6761 7.9171C10.6761 5.91206 9.05068 4.28663 7.0455 4.28663C5.04046 4.28663 3.41504 5.91206 3.41504 7.9171C3.41504 9.9222 5.04046 11.5476 7.0455 11.5476C7.7308 11.5476 8.36455 11.3465 8.91138 11.0165L17.0228 18.8445C14.404 21.8584 12.8074 25.7841 12.8074 30.0904C12.8074 34.5753 14.5411 38.6455 17.3568 41.7038L9.40998 49.9385C8.77346 49.3876 7.95343 49.0425 7.0455 49.0425C5.04046 49.0425 3.41504 50.6679 3.41504 52.673C3.41504 54.6781 5.04046 56.3035 7.0455 56.3035C9.05068 56.3035 10.6761 54.6781 10.6761 52.673C10.6761 51.9874 10.4749 51.3534 10.1446 50.8064L18.1471 42.5138C21.0993 45.3258 25.0465 47.0888 29.4107 47.2315V51.3903C28.152 51.6519 27.2059 52.7665 27.2059 54.1028C27.2059 55.6334 28.4466 56.8741 29.9771 56.8741C31.5076 56.8741 32.7484 55.6334 32.7484 54.1028C32.7484 52.7662 31.802 51.6513 30.5427 51.39V47.2316C35.1649 47.0807 39.3216 45.1141 42.3209 42.008L50.7816 50.1727C50.2309 50.8092 49.886 51.6289 49.886 52.5366C49.886 54.5416 51.5114 56.167 53.5165 56.167C55.5215 56.167 57.1469 54.5416 57.1469 52.5366C57.1469 50.5315 55.5215 48.9061 53.5165 48.9061ZM38.0096 36.3665L25.9558 34.2693L25.5222 34.3596L26.5761 39.4455C26.8491 40.7285 26.0211 41.9982 24.7298 42.2729C24.5673 42.3061 24.4048 42.3221 24.2445 42.3221C23.1279 42.3221 22.1296 41.5466 21.8985 40.4233L20.7006 34.6719C19.1822 34.141 17.9683 32.8526 17.6167 31.1661C17.358 29.9273 17.5968 28.6604 18.2878 27.5979C18.9887 26.5372 20.0534 25.8136 21.2894 25.5565L24.0267 24.9866L34.2386 18.2555C34.9063 17.8172 35.7421 17.7376 36.4762 18.0405C37.2114 18.3445 37.7476 18.9907 37.9101 19.7701L38.4963 22.5867C40.3115 22.4916 41.9797 23.7173 42.3577 25.5494C42.5633 26.5256 42.3754 27.5255 41.8259 28.3624C41.384 29.0382 40.7441 29.5312 39.9993 29.8089L40.7701 33.5126C40.9326 34.292 40.6994 35.099 40.1455 35.6712C39.6889 36.1427 39.0665 36.4019 38.4219 36.4019C38.2849 36.4019 38.1478 36.3903 38.0096 36.3665Z" fill="#F2F2F2"/>
<path d="M24.4131 34.5898L23.2194 34.8383C22.8954 34.9057 22.5715 34.9383 22.252 34.9383C22.1343 34.9383 22.0207 34.9168 21.9043 34.9081L23.0049 40.1935C23.1442 40.8696 23.8186 41.3018 24.4974 41.1647C25.1728 41.0205 25.6106 40.3527 25.4669 39.6778L24.4131 34.5898Z" fill="#F2F2F2"/>
<path d="M22.9901 33.7302L25.281 33.2527L23.8095 26.1875L21.5186 26.6646C20.5778 26.8603 19.7663 27.412 19.2334 28.2185C18.7094 29.025 18.527 29.9907 18.7238 30.9348C19.1295 32.8806 21.031 34.1381 22.9901 33.7302Z" fill="#F2F2F2"/>
<path d="M36.8017 20.0007C36.7144 19.5828 36.438 19.2495 36.0433 19.087C35.6486 18.925 35.2186 18.9653 34.8615 19.2003L24.8828 25.7769L26.4287 33.2018L38.2035 35.2505C38.6247 35.3257 39.0349 35.1897 39.3312 34.8835C39.6286 34.5767 39.7491 34.161 39.6617 33.7431L36.8017 20.0007Z" fill="#F2F2F2"/>
<path d="M40.8786 27.7418C41.2611 27.158 41.3927 26.4615 41.2489 25.78C41.1074 25.0967 40.7083 24.5103 40.1257 24.1277C39.703 23.8507 39.22 23.708 38.7275 23.7021L39.7653 28.6892C40.2158 28.486 40.6023 28.1637 40.8786 27.7418Z" fill="#F2F2F2"/>
</g>
<defs>
<clipPath id="clip0_1_7558">
<rect width="60" height="60" fill="white" transform="translate(0.280273 0.0898438)"/>
</clipPath>
</defs>
</svg>
