<svg width="25" height="25" viewBox="0 0 25 25" fill="none" xmlns="http://www.w3.org/2000/svg">
<g clip-path="url(#clip0_1_7617)">
<g clip-path="url(#clip1_1_7617)">
<path d="M12.9805 16.22C15.1896 16.22 16.9805 14.4291 16.9805 12.22C16.9805 10.0109 15.1896 8.22 12.9805 8.22C10.7713 8.22 8.98047 10.0109 8.98047 12.22C8.98047 14.4291 10.7713 16.22 12.9805 16.22Z" stroke="black" stroke-width="1.5" stroke-linejoin="round"/>
<path d="M20.9805 12.22H21.9805" stroke="black" stroke-width="1.5" stroke-linecap="round"/>
<path d="M3.98047 12.22H4.98047" stroke="black" stroke-width="1.5" stroke-linecap="round"/>
<path d="M12.9805 20.22V21.22" stroke="black" stroke-width="1.5" stroke-linecap="round"/>
<path d="M12.9805 3.22V4.22" stroke="black" stroke-width="1.5" stroke-linecap="round"/>
<path d="M18.6367 17.8767L19.3438 18.5838" stroke="black" stroke-width="1.5" stroke-linecap="round"/>
<path d="M6.61621 5.85599L7.32331 6.56309" stroke="black" stroke-width="1.5" stroke-linecap="round"/>
<path d="M7.32332 17.8767L6.61621 18.5838" stroke="black" stroke-width="1.5" stroke-linecap="round"/>
<path d="M19.3448 5.85599L18.6377 6.56309" stroke="black" stroke-width="1.5" stroke-linecap="round"/>
</g>
</g>
<defs>
<clipPath id="clip0_1_7617">
<rect width="24" height="24" fill="white" transform="translate(0.980469 0.220001)"/>
</clipPath>
<clipPath id="clip1_1_7617">
<rect width="24" height="24" fill="white" transform="translate(0.980469 0.220001)"/>
</clipPath>
</defs>
</svg>
