<svg width="16" height="17" viewBox="0 0 16 17" fill="none" xmlns="http://www.w3.org/2000/svg">
<g clip-path="url(#clip0_1_6502)">
<path d="M7.99968 0.219971C4.80452 0.219971 2.20508 2.81941 2.20508 6.01453C2.20508 9.97978 7.39068 15.801 7.61146 16.0469C7.81883 16.2779 8.1809 16.2775 8.38789 16.0469C8.60868 15.801 13.7943 9.97978 13.7943 6.01453C13.7942 2.81941 11.1948 0.219971 7.99968 0.219971ZM7.99968 8.92994C6.39211 8.92994 5.0843 7.62209 5.0843 6.01453C5.0843 4.40697 6.39214 3.09916 7.99968 3.09916C9.60721 3.09916 10.9151 4.407 10.9151 6.01456C10.9151 7.62213 9.60721 8.92994 7.99968 8.92994Z" fill="#D6D7D8"/>
</g>
<defs>
<clipPath id="clip0_1_6502">
<rect width="16" height="16" fill="white" transform="translate(0 0.219971)"/>
</clipPath>
</defs>
</svg>
