<svg width="16" height="17" viewBox="0 0 16 17" fill="none" xmlns="http://www.w3.org/2000/svg">
<path fill-rule="evenodd" clip-rule="evenodd" d="M1.96372 3.16363L6.28622 7.48801C7.22897 8.42894 8.77003 8.42976 9.71356 7.48801L14.0361 3.16363C14.0796 3.1201 14.0732 3.04841 14.0227 3.01319C13.5819 2.70573 13.0455 2.52344 12.4677 2.52344H3.53216C2.95431 2.52344 2.41791 2.70576 1.97703 3.01319C1.92653 3.04841 1.92019 3.1201 1.96372 3.16363ZM0.808594 5.24698C0.808594 4.7926 0.92125 4.36329 1.11969 3.98594C1.15072 3.92691 1.22938 3.91498 1.27653 3.96213L5.54431 8.22991C6.89578 9.58335 9.10322 9.58413 10.4555 8.22991L14.7233 3.96213C14.7704 3.91498 14.8491 3.92691 14.8801 3.98594C15.0785 4.36329 15.1912 4.79263 15.1912 5.24698V10.9325C15.1912 12.4354 13.9687 13.656 12.4677 13.656H3.53216C2.03116 13.656 0.808594 12.4354 0.808594 10.9325V5.24698Z" fill="#575756"/>
</svg>
