<svg width="61" height="61" viewBox="0 0 61 61" fill="none" xmlns="http://www.w3.org/2000/svg">
<g clip-path="url(#clip0_1_7533)">
<g clip-path="url(#clip1_1_7533)">
<g clip-path="url(#clip2_1_7533)">
<mask id="mask0_1_7533" style="mask-type:luminance" maskUnits="userSpaceOnUse" x="0" y="0" width="61" height="61">
<path d="M60.5596 0.0898438H0.55957V60.0898H60.5596V0.0898438Z" fill="white"/>
</mask>
<g mask="url(#mask0_1_7533)">
<path d="M60.5596 40.6953C60.5596 31.9497 54.6668 24.3087 46.357 22.0062C45.8347 9.83288 35.7694 0.0898438 23.4698 0.0898438C10.8369 0.0898438 0.55957 10.3671 0.55957 23C0.55957 27.1171 1.65546 31.1257 3.73645 34.645L0.643799 45.8254L11.8247 42.7332C15.0597 44.6462 18.709 45.7238 22.4755 45.8863C24.7776 54.1966 32.419 60.0898 41.1651 60.0898C44.656 60.0898 48.0507 59.1601 51.0335 57.3936L60.4749 60.0051L57.8634 50.5637C59.6299 47.5809 60.5596 44.1862 60.5596 40.6953ZM12.3795 38.932L5.68607 40.7836L7.53772 34.0902L7.11566 33.4301C5.12668 30.3182 4.07519 26.7115 4.07519 23C4.07519 12.3057 12.7755 3.60546 23.4698 3.60546C34.164 3.60546 42.8643 12.3057 42.8643 23C42.8643 33.6942 34.164 42.3945 23.4698 42.3945C19.7582 42.3945 16.1519 41.343 13.0396 39.354L12.3795 38.932ZM55.4331 54.9633L50.4664 53.5891L49.8031 54.0208C47.2318 55.6911 44.2444 56.5742 41.1651 56.5742C34.2913 56.5742 28.2511 52.1297 26.1111 45.7568C36.6369 44.5432 45.013 36.1671 46.227 25.6408C52.5995 27.7813 57.044 33.8215 57.044 40.6953C57.044 43.7746 56.1609 46.762 54.4906 49.3333L54.0589 49.9966L55.4331 54.9633Z" fill="#F2F2F2"/>
<path d="M21.7119 31.8477H25.2276V35.3633H21.7119V31.8477Z" fill="#F2F2F2"/>
<path d="M26.9854 17.6679C26.9854 18.6663 26.5789 19.5878 25.841 20.263L21.7119 24.0423V28.332H25.2276V25.5904L28.2145 22.8567C29.6674 21.5269 30.501 19.6359 30.501 17.6679C30.501 13.7907 27.347 10.6367 23.4698 10.6367C19.5925 10.6367 16.4385 13.7907 16.4385 17.6679H19.9541C19.9541 15.7293 21.5311 14.1523 23.4698 14.1523C25.4084 14.1523 26.9854 15.7293 26.9854 17.6679Z" fill="#F2F2F2"/>
</g>
</g>
</g>
</g>
<defs>
<clipPath id="clip0_1_7533">
<rect width="60" height="60" fill="white" transform="translate(0.55957 0.0898438)"/>
</clipPath>
<clipPath id="clip1_1_7533">
<rect width="60" height="60" fill="white" transform="translate(0.55957 0.0898438)"/>
</clipPath>
<clipPath id="clip2_1_7533">
<rect width="60" height="60" fill="white" transform="translate(0.55957 0.0898438)"/>
</clipPath>
</defs>
</svg>
