<svg width="16" height="17" viewBox="0 0 16 17" fill="none" xmlns="http://www.w3.org/2000/svg">
<path d="M13.656 2.67229C10.5314 -0.451423 5.46601 -0.450673 2.34229 2.67401C-0.781425 5.7987 -0.780675 10.864 2.34401 13.9877C5.4687 17.1114 10.534 17.1107 13.6577 13.986C15.1579 12.4854 16.0005 10.4502 16 8.32829C15.9996 6.20673 15.1564 4.17223 13.656 2.67229ZM12.1157 11.4739L12.1147 11.475V11.4723L11.7093 11.875C11.1851 12.4058 10.4216 12.6242 9.69598 12.451C8.96489 12.2553 8.26989 11.9438 7.63732 11.5283C7.04964 11.1527 6.50501 10.7137 6.01332 10.219C5.56092 9.76989 5.15448 9.27676 4.79998 8.74698C4.41223 8.17692 4.10532 7.55592 3.88798 6.90164C3.63882 6.13301 3.84529 5.28961 4.42132 4.72298L4.89598 4.24832C5.02795 4.11576 5.24239 4.11529 5.37492 4.24726L5.37598 4.24832L6.87464 5.74698C7.0072 5.87895 7.00767 6.09339 6.8757 6.22592L6.87464 6.22698L5.99464 7.10698C5.74214 7.35673 5.71039 7.75361 5.91998 8.04032C6.23826 8.47714 6.59048 8.88817 6.97332 9.26967C7.40017 9.69835 7.8642 10.0883 8.35998 10.435C8.64645 10.6348 9.03482 10.6011 9.28264 10.355L10.1333 9.49101C10.2653 9.35845 10.4797 9.35798 10.6122 9.48995L10.6133 9.49101L12.1146 10.995C12.2472 11.1269 12.2477 11.3414 12.1157 11.4739Z" fill="black"/>
</svg>
