<svg width="36" height="35" viewBox="0 0 36 35" fill="none" xmlns="http://www.w3.org/2000/svg">
<g clip-path="url(#clip0_1_7265)">
<g clip-path="url(#clip1_1_7265)">
<g clip-path="url(#clip2_1_7265)">
<path fill-rule="evenodd" clip-rule="evenodd" d="M10.3685 1.12939H25.6319C26.9834 1.12939 28.0894 2.23541 28.0894 3.58682V18.8502C28.0894 20.2016 26.9834 21.3076 25.6319 21.3076H10.3685C9.01714 21.3076 7.91113 20.2016 7.91113 18.8502V3.58682C7.91113 2.23541 9.01714 1.12939 10.3685 1.12939Z" fill="#FFD164"/>
<path fill-rule="evenodd" clip-rule="evenodd" d="M14.7331 1.12939H21.2666V9.15557C21.2666 9.3651 21.159 9.54439 20.9734 9.64353C20.7899 9.74338 20.581 9.73494 20.4053 9.62174L18.3043 8.24854C18.1152 8.12479 17.8839 8.12479 17.6947 8.24854L15.5938 9.62174C15.4187 9.73564 15.2092 9.74338 15.0256 9.64353C14.84 9.54369 14.7324 9.36439 14.7324 9.15557L14.7331 1.12939Z" fill="#FF4155"/>
<path fill-rule="evenodd" clip-rule="evenodd" d="M10.3685 1.12939H12.1741C10.8227 1.12939 9.71675 2.23541 9.71675 3.58682V18.8502C9.71675 20.2016 10.8227 21.3076 12.1741 21.3076H10.3685C9.01714 21.3076 7.91113 20.2016 7.91113 18.8502V3.58682C7.91113 2.23541 9.01714 1.12939 10.3685 1.12939Z" fill="#E6BC5A"/>
<path fill-rule="evenodd" clip-rule="evenodd" d="M2.86035 27.8771L4.7834 28.2898C12.2478 29.0809 16.1684 37.5556 27.8937 28.9993L32.4141 28.0325L30.4868 18.0868L26.7856 18.8778C19.7122 14.7919 14.0555 17.2592 8.8798 18.8061L6.90051 18.3835L5.07309 17.9926L2.86035 27.8771Z" fill="#FFDAA2"/>
<path fill-rule="evenodd" clip-rule="evenodd" d="M30.487 18.0865L26.7857 18.8776C23.6582 16.9819 19.8895 16.0869 15.0267 17.0579L11.3036 20.5278C8.50943 23.1111 13.2991 23.4197 16.4238 20.3049C18.7638 24.7754 24.7389 24.9132 27.8938 28.999L32.4142 28.0322L30.487 18.0865Z" fill="#FBBD80"/>
<path fill-rule="evenodd" clip-rule="evenodd" d="M9.60673 30.4516L11.4721 28.8056C12.0564 28.2916 12.1141 27.3902 11.598 26.8066C11.0819 26.2223 10.1826 26.1646 9.59689 26.6807L7.7315 28.3253C7.1472 28.8414 7.09166 29.7407 7.60564 30.3264C8.12244 30.91 9.02314 30.9663 9.60673 30.4516Z" fill="#FBBD80"/>
<path fill-rule="evenodd" clip-rule="evenodd" d="M12.9056 31.3211L14.771 29.6765C15.3553 29.1604 15.413 28.2611 14.8969 27.6754C14.3808 27.0911 13.4815 27.0355 12.8958 27.5495L11.0304 29.1955C10.4461 29.7095 10.3905 30.6109 10.9045 31.1945C11.4206 31.7795 12.3213 31.8372 12.9056 31.3211Z" fill="#FBBD80"/>
<path fill-rule="evenodd" clip-rule="evenodd" d="M15.5786 32.7417L17.444 31.0971C18.0283 30.5831 18.0859 29.6817 17.5698 29.0981C17.0559 28.5124 16.1544 28.4561 15.5709 28.9722L13.7055 30.6168C13.1198 31.1308 13.0635 32.0322 13.5796 32.6158C14.0936 33.2022 14.9943 33.2585 15.5786 32.7417Z" fill="#FBBD80"/>
<path fill-rule="evenodd" clip-rule="evenodd" d="M17.7628 30.8165L17.2467 31.2729C16.661 31.789 16.6047 32.6883 17.1194 33.2718C17.6355 33.8575 18.5362 33.9138 19.1205 33.3991L19.6387 32.9407C20.223 32.4267 20.2807 31.5253 19.7646 30.9417C19.2471 30.3581 18.3485 30.3004 17.7628 30.8165Z" fill="#FBBD80"/>
<path fill-rule="evenodd" clip-rule="evenodd" d="M0.00195312 27.2667L2.11896 17.3604L6.90298 18.3827L4.78597 28.2891L0.00195312 27.2667Z" fill="#0593FC"/>
<path fill-rule="evenodd" clip-rule="evenodd" d="M29.1016 18.3862L33.8856 17.3638L36.0026 27.2702L31.2186 28.2926L29.1016 18.3862Z" fill="#0593FC"/>
<path fill-rule="evenodd" clip-rule="evenodd" d="M2.11711 17.3613L3.11977 17.5771L1.00266 27.4806L0 27.2676L2.11711 17.3613Z" fill="#0584E3"/>
</g>
</g>
</g>
<defs>
<clipPath id="clip0_1_7265">
<rect width="36" height="34" fill="white" transform="translate(0 0.44043)"/>
</clipPath>
<clipPath id="clip1_1_7265">
<rect width="36" height="34" fill="white" transform="translate(0 0.44043)"/>
</clipPath>
<clipPath id="clip2_1_7265">
<rect width="36" height="34" fill="white" transform="translate(0 0.44043)"/>
</clipPath>
</defs>
</svg>
