<svg width="32" height="33" viewBox="0 0 32 33" fill="none" xmlns="http://www.w3.org/2000/svg">
<g clip-path="url(#clip0_1_7287)">
<g clip-path="url(#clip1_1_7287)">
<g clip-path="url(#clip2_1_7287)">
<mask id="mask0_1_7287" style="mask-type:luminance" maskUnits="userSpaceOnUse" x="0" y="0" width="32" height="33">
<path d="M32 0.44043H0V32.4404H32V0.44043Z" fill="white"/>
</mask>
<g mask="url(#mask0_1_7287)">
<path d="M31.9998 5.04288V9.77904H26.0615V5.04288C26.0586 3.40572 27.3835 2.07635 29.0204 2.07373H29.0353C30.6707 2.07373 31.9969 3.39814 31.9998 5.03348V5.04288Z" fill="#00ACEA"/>
<path d="M7.67031 2.07373H29.0206C27.3837 2.07635 26.0588 3.40572 26.0616 5.04288V26.7983C26.059 29.0004 24.2732 30.7841 22.0712 30.7841H22.0591C21.9669 30.7841 21.8757 30.7807 21.7848 30.7742C19.6928 30.6279 18.071 28.887 18.0734 26.7897V24.2099H4.70117V24.1743L4.84226 4.86626C4.84226 3.31114 6.1152 2.07373 7.67031 2.07373ZM19.3053 11.5147V7.69824L15.0974 5.63128L10.8903 7.69223V11.5147C10.8903 12.4927 11.5237 13.6906 12.3323 14.2424L15.0974 16.1278L17.8625 14.2424C18.6712 13.6906 19.3053 12.4927 19.3053 11.5147Z" fill="#00EFD1"/>
<path d="M21.785 30.7743L21.7845 30.7843H3.99048C1.78844 30.7843 0.00261277 29.0005 0 26.7985V24.21H18.0736V26.7899C18.0712 28.8871 19.6929 30.628 21.785 30.7743Z" fill="#00ACEA"/>
<path d="M19.3055 7.69831V11.5148C19.3055 12.4927 18.6714 13.6907 17.8628 14.2425L15.0977 16.1279L12.3326 14.2425C11.5239 13.6907 10.8906 12.4927 10.8906 11.5148V7.6923L15.0977 5.63135L19.3055 7.69831Z" fill="#00ACEA"/>
<path d="M14.5718 12.4793H14.5705C14.4281 12.4788 14.2917 12.4218 14.1916 12.3207L13.1146 11.233C12.978 11.0977 12.9244 10.8994 12.9746 10.7133C13.0248 10.5276 13.1708 10.3831 13.3571 10.3347C13.5434 10.2864 13.7412 10.3421 13.8752 10.48L14.5739 11.1855L16.3226 9.43753C16.5316 9.22851 16.8705 9.22851 17.0793 9.43753C17.2883 9.64655 17.2883 9.98517 17.0793 10.1942L14.9504 12.3225C14.8498 12.4229 14.7137 12.4793 14.5718 12.4793Z" fill="#FEDB41"/>
<path d="M21.7524 19.1713H8.91009C8.61459 19.1713 8.375 18.932 8.375 18.6362C8.375 18.3407 8.61459 18.1011 8.91009 18.1011H21.7524C22.0479 18.1011 22.2875 18.3407 22.2875 18.6362C22.2875 18.932 22.0479 19.1713 21.7524 19.1713Z" fill="#00ACEA"/>
<path d="M21.7524 21.6459H8.91009C8.61459 21.6459 8.375 21.4066 8.375 21.1108C8.375 20.8153 8.61459 20.5757 8.91009 20.5757H21.7524C22.0479 20.5757 22.2875 20.8153 22.2875 21.1108C22.2875 21.4066 22.0479 21.6459 21.7524 21.6459Z" fill="#00ACEA"/>
</g>
</g>
</g>
</g>
<defs>
<clipPath id="clip0_1_7287">
<rect width="32" height="32" fill="white" transform="translate(0 0.44043)"/>
</clipPath>
<clipPath id="clip1_1_7287">
<rect width="32" height="32" fill="white" transform="translate(0 0.44043)"/>
</clipPath>
<clipPath id="clip2_1_7287">
<rect width="32" height="32" fill="white" transform="translate(0 0.44043)"/>
</clipPath>
</defs>
</svg>
