<svg width="48" height="47" viewBox="0 0 48 47" fill="none" xmlns="http://www.w3.org/2000/svg">
<mask id="mask0_1_6941" style="mask-type:luminance" maskUnits="userSpaceOnUse" x="0" y="0" width="48" height="46">
<path d="M48 0.69043H0V45.9862H48V0.69043Z" fill="white"/>
</mask>
<g mask="url(#mask0_1_6941)">
<mask id="mask1_1_6941" style="mask-type:luminance" maskUnits="userSpaceOnUse" x="0" y="0" width="48" height="46">
<path d="M44.8195 33.4759C42.7519 38.3816 38.9279 41.9974 33.3475 44.3232C27.7671 46.6491 22.5869 46.2972 17.8069 43.2678C13.0269 40.2384 8.40256 36.6226 3.93381 32.4204C-0.534934 28.2183 -0.979586 23.6253 2.59986 18.6413C6.1793 13.6574 10.8037 9.04486 16.473 4.80364C22.1423 0.56242 28.8232 -0.326867 36.5156 2.13577C44.2081 4.59842 48.0321 9.21099 47.9876 15.9735C47.9432 22.736 46.8871 28.5701 44.8195 33.4759Z" fill="white"/>
</mask>
<g mask="url(#mask1_1_6941)">
<path d="M44.8195 33.4759C42.7519 38.3816 38.9279 41.9974 33.3475 44.3232C27.7671 46.6491 22.5869 46.2972 17.8069 43.2678C13.0269 40.2384 8.40256 36.6226 3.93381 32.4204C-0.534934 28.2183 -0.979586 23.6253 2.59986 18.6413C6.1793 13.6574 10.8037 9.04486 16.473 4.80364C22.1423 0.56242 28.8232 -0.326867 36.5156 2.13577C44.2081 4.59842 48.0321 9.21099 47.9876 15.9735C47.9432 22.736 46.8871 28.5701 44.8195 33.4759Z" fill="#E4F9F9"/>
</g>
</g>
<path d="M35.5625 22.4404V8.62793C35.5625 8.11018 35.1428 7.69043 34.625 7.69043H13.375C12.8572 7.69043 12.4375 8.11018 12.4375 8.62793V22.4404C12.4375 22.689 12.5363 22.9275 12.7121 23.1033L13.2992 23.6904L12.7121 24.2775C12.5363 24.4533 12.4375 24.6918 12.4375 24.9404V38.7529C12.4375 39.2707 12.8572 39.6904 13.375 39.6904H34.625C35.1428 39.6904 35.5625 39.2707 35.5625 38.7529V24.9404C35.5625 24.6918 35.4637 24.4533 35.2879 24.2775L34.7008 23.6904L35.2879 23.1033C35.4637 22.9275 35.5625 22.689 35.5625 22.4404ZM33.6875 22.0521L32.7121 23.0275C32.346 23.3936 32.346 23.9872 32.7121 24.3533L33.6875 25.3287V37.8154H14.3125V25.3287L15.2879 24.3533C15.654 23.9871 15.654 23.3936 15.2879 23.0275L14.3125 22.0521V9.56543H33.6875V22.0521Z" fill="black"/>
<path d="M17.7677 17.8004L19.2464 19.1117C19.5483 19.3794 19.9877 19.4239 20.3372 19.2221L24.774 16.6605L24.5967 19.41C24.5634 19.9267 24.9553 20.3725 25.472 20.4059C25.9887 20.4393 26.4345 20.0474 26.4679 19.5307L26.7257 15.5338L30.08 13.5972C30.5284 13.3383 30.682 12.7649 30.4231 12.3165C30.1642 11.8681 29.5908 11.7145 29.1425 11.9734L25.7882 13.91L22.1978 12.1349C21.7337 11.9054 21.1715 12.0956 20.9419 12.5597C20.7124 13.0239 20.9027 13.5862 21.3668 13.8157L23.8365 15.0369L19.9848 17.2606L19.0117 16.3976C18.6243 16.0542 18.0318 16.0897 17.6882 16.477C17.3447 16.8644 17.3803 17.4569 17.7677 17.8004Z" fill="black"/>
<path d="M17.125 28.4404H30.875C31.3928 28.4404 31.8125 28.0207 31.8125 27.5029C31.8125 26.9851 31.3928 26.5654 30.875 26.5654H17.125C16.6072 26.5654 16.1875 26.9851 16.1875 27.5029C16.1875 28.0207 16.6072 28.4404 17.125 28.4404Z" fill="black"/>
<path d="M17.125 32.1904H24C24.5178 32.1904 24.9375 31.7707 24.9375 31.2529C24.9375 30.7351 24.5178 30.3154 24 30.3154H17.125C16.6072 30.3154 16.1875 30.7351 16.1875 31.2529C16.1875 31.7707 16.6072 32.1904 17.125 32.1904Z" fill="black"/>
<path d="M17.125 35.9404H24C24.5178 35.9404 24.9375 35.5207 24.9375 35.0029C24.9375 34.4851 24.5178 34.0654 24 34.0654H17.125C16.6072 34.0654 16.1875 34.4851 16.1875 35.0029C16.1875 35.5207 16.6072 35.9404 17.125 35.9404Z" fill="black"/>
<path d="M18.375 24.6279H19.625C20.1428 24.6279 20.5625 24.2082 20.5625 23.6904C20.5625 23.1726 20.1428 22.7529 19.625 22.7529H18.375C17.8572 22.7529 17.4375 23.1726 17.4375 23.6904C17.4375 24.2082 17.8572 24.6279 18.375 24.6279Z" fill="black"/>
<path d="M24.625 22.7529H23.375C22.8572 22.7529 22.4375 23.1726 22.4375 23.6904C22.4375 24.2082 22.8572 24.6279 23.375 24.6279H24.625C25.1428 24.6279 25.5625 24.2082 25.5625 23.6904C25.5625 23.1726 25.1428 22.7529 24.625 22.7529Z" fill="black"/>
<path d="M29.625 22.7529H28.375C27.8572 22.7529 27.4375 23.1726 27.4375 23.6904C27.4375 24.2082 27.8572 24.6279 28.375 24.6279H29.625C30.1428 24.6279 30.5625 24.2082 30.5625 23.6904C30.5625 23.1726 30.1428 22.7529 29.625 22.7529Z" fill="black"/>
<path d="M29 30.3154C27.4492 30.3154 26.1875 31.5771 26.1875 33.1279C26.1875 34.6787 27.4492 35.9404 29 35.9404C30.5508 35.9404 31.8125 34.6787 31.8125 33.1279C31.8125 31.5771 30.5508 30.3154 29 30.3154ZM29 34.0654C28.4831 34.0654 28.0625 33.6448 28.0625 33.1279C28.0625 32.611 28.4831 32.1904 29 32.1904C29.5169 32.1904 29.9375 32.611 29.9375 33.1279C29.9375 33.6448 29.5169 34.0654 29 34.0654Z" fill="black"/>
</svg>
