<svg width="28" height="35" viewBox="0 0 28 35" fill="none" xmlns="http://www.w3.org/2000/svg">
<g clip-path="url(#clip0_1_7216)">
<g clip-path="url(#clip1_1_7216)">
<path d="M27.5568 7.14697V16.2032C27.5568 24.4157 21.9881 31.6157 14.0006 33.6407C6.01309 31.6157 0.444336 24.4157 0.444336 16.2032V7.14697C6.68809 6.41572 10.2881 4.05322 14.0006 1.24072C17.7131 4.05322 21.3131 6.41572 27.5568 7.14697Z" fill="#FFD15D"/>
<path d="M14 30.0407C7.98125 28.1282 3.875 22.5594 3.875 16.2032V10.0719C8.09375 9.17188 11.1875 7.42813 14 5.51562C16.8687 7.48438 19.9062 9.17188 24.125 10.0719V16.2032C24.125 22.5594 20.0187 28.1282 14 30.0407Z" fill="#F5B92D"/>
<path d="M11.75 22.9531L8.375 19.6343L10.1188 17.9468L11.75 19.5781L17.8813 13.4468L19.625 15.1343L11.75 22.9531Z" fill="white"/>
</g>
</g>
<defs>
<clipPath id="clip0_1_7216">
<rect width="28" height="34" fill="white" transform="translate(0 0.44043)"/>
</clipPath>
<clipPath id="clip1_1_7216">
<rect width="28" height="34" fill="white" transform="translate(0 0.44043)"/>
</clipPath>
</defs>
</svg>
