<svg width="36" height="37" viewBox="0 0 36 37" fill="none" xmlns="http://www.w3.org/2000/svg">
<g clip-path="url(#clip0_1_7229)">
<g clip-path="url(#clip1_1_7229)">
<g clip-path="url(#clip2_1_7229)">
<mask id="mask0_1_7229" style="mask-type:luminance" maskUnits="userSpaceOnUse" x="0" y="0" width="36" height="37">
<path d="M36 0.44043H0V36.4404H36V0.44043Z" fill="white"/>
</mask>
<g mask="url(#mask0_1_7229)">
<path d="M25.7203 20.2231L18.6762 22.0547C18.2409 22.1679 17.7841 22.1702 17.3477 22.0614L9.91658 20.2084C8.73814 19.9145 7.91113 18.856 7.91113 17.6414V9.52282C7.91106 4.50673 11.9775 0.44043 16.9936 0.44043H18.6177C23.6338 0.44043 27.7001 4.50673 27.7001 9.52282V17.6627C27.7001 18.8674 26.8862 19.9199 25.7203 20.2231Z" fill="#FD9727"/>
<path d="M18.6174 0.44043H16.9933C16.5853 0.44043 16.1838 0.467781 15.79 0.519883C20.2373 1.10861 23.6692 4.91469 23.6692 9.52282V17.6627C23.6692 18.8674 22.8554 19.9199 21.6894 20.2231L15.9551 21.7142L17.3474 22.0614C17.7839 22.1702 18.2406 22.1679 18.676 22.0547L25.7201 20.2231C26.886 19.9199 27.6999 18.8674 27.6999 17.6626V9.52282C27.6998 4.50673 23.6335 0.44043 18.6174 0.44043Z" fill="#FF6D3A"/>
<path d="M8.33186 15.1927H10.2591V10.4873H8.33186C7.76564 10.4873 7.30664 10.9463 7.30664 11.5125V14.1674C7.30664 14.7337 7.76564 15.1927 8.33186 15.1927Z" fill="#3D6687"/>
<path d="M27.6684 15.1927H25.7412V10.4873H27.6684C28.2347 10.4873 28.6937 10.9463 28.6937 11.5125V14.1674C28.6937 14.7337 28.2347 15.1927 27.6684 15.1927Z" fill="#3D6687"/>
<path d="M22.3515 23.4031C21.6775 23.2676 21.1925 22.6755 21.1925 21.988V18.7344H17.9997H14.807V21.988C14.807 22.6755 14.322 23.2676 13.648 23.4031L12.8701 23.5595V28.7843H17.9997H23.1294V23.5595L22.3515 23.4031Z" fill="#FED9A8"/>
<path d="M28.9992 25.1571L22.5953 23.1604C22.3965 23.0984 22.1797 23.1487 22.0286 23.2919L17.9999 27.1098L13.9712 23.292C13.82 23.1488 13.6032 23.0984 13.4045 23.1604L7.00053 25.1572C4.16132 25.9931 2.21191 28.5993 2.21191 31.559V35.8253C2.21191 36.1649 2.48725 36.4403 2.82686 36.4403H33.1729C33.5125 36.4403 33.7879 36.1649 33.7879 35.8253V31.559C33.7878 28.5992 31.8384 25.993 28.9992 25.1571Z" fill="#FF4C4C"/>
<path d="M28.9991 25.1571L22.5952 23.1604C22.3964 23.0984 22.1797 23.1487 22.0285 23.2919L21.2754 24.0056L24.9685 25.1571C27.8077 25.993 29.7571 28.5992 29.7571 31.559V36.4402H33.1728C33.5125 36.4402 33.7878 36.1648 33.7878 35.8252V31.559C33.7877 28.5992 31.8383 25.993 28.9991 25.1571Z" fill="#EF2929"/>
<path d="M17.9994 21.4396C13.6041 21.4396 10.041 17.8765 10.041 13.4812V11.2446C10.041 6.84928 13.6042 3.28613 17.9994 3.28613C22.3947 3.28613 25.9579 6.84928 25.9579 11.2446V13.4812C25.9579 17.8766 22.3948 21.4396 17.9994 21.4396Z" fill="#FED9A8"/>
<path d="M21.9276 4.32178V13.4811C21.9276 17.1801 19.4039 20.2895 15.9844 21.1819C16.6281 21.3498 17.3034 21.4396 17.9997 21.4396C22.3951 21.4396 25.9582 17.8764 25.9582 13.4811V11.2445C25.9582 8.27776 24.3346 5.69041 21.9276 4.32178Z" fill="#F4C892"/>
<path d="M13.9715 23.2924L18.0002 27.1103L15.5157 27.9567C14.9069 28.164 14.2332 27.9838 13.8093 27.5001L10.7363 23.9929L13.4048 23.1609C13.6037 23.0989 13.8204 23.1492 13.9715 23.2924Z" fill="#D4145A"/>
<path d="M22.0287 23.2924L18 27.1103L20.2518 27.8774C21.0014 28.1327 21.831 27.9107 22.3529 27.3152L25.2639 23.9929L22.5954 23.1609C22.3965 23.0989 22.1798 23.1492 22.0287 23.2924Z" fill="#D4145A"/>
<path d="M13.2463 33.2825H9.1501C8.92264 33.2825 8.73828 33.0981 8.73828 32.8707V31.0563C8.73828 30.8289 8.92264 30.6445 9.1501 30.6445H13.2463C13.4738 30.6445 13.6581 30.8289 13.6581 31.0563V32.8707C13.6582 33.0981 13.4738 33.2825 13.2463 33.2825Z" fill="#EDA558"/>
<path d="M27.7002 11.2004C27.7002 11.2004 24.2665 10.9278 23.0916 7.76951C23.0916 7.76951 14.7913 14.4148 7.91113 11.2004V9.52282C7.91113 4.50673 11.9776 0.44043 16.9936 0.44043H18.6178C23.6339 0.44043 27.7002 4.50673 27.7002 9.52282V11.2004Z" fill="#FD9727"/>
<path d="M18.6174 0.44043H16.9933C16.5853 0.44043 16.1838 0.467781 15.79 0.519883C20.0187 1.07964 23.3291 4.54836 23.6443 8.84944C25.0923 10.993 27.6998 11.2004 27.6998 11.2004V9.52282C27.6998 4.50673 23.6335 0.44043 18.6174 0.44043Z" fill="#FF6D3A"/>
<path d="M29.6922 30.3818C29.3919 30.3818 29.1484 30.6253 29.1484 30.9256V36.4402H30.2359V30.9256C30.236 30.6252 29.9925 30.3818 29.6922 30.3818Z" fill="#D4145A"/>
<path d="M6.30747 30.3818C6.00716 30.3818 5.76367 30.6253 5.76367 30.9256V36.4402H6.85119V30.9256C6.85119 30.6252 6.60777 30.3818 6.30747 30.3818Z" fill="#D4145A"/>
<path d="M26.1797 15.1929V16.1848C26.1797 17.0398 25.5681 17.7654 24.7253 17.9098L19.2534 18.8482C18.9577 18.8988 18.759 19.1797 18.8097 19.4755C18.8551 19.7401 19.0848 19.927 19.3445 19.927C19.3751 19.927 19.4059 19.9245 19.437 19.9191L24.9089 18.9808C26.2748 18.7465 27.2662 17.5707 27.2662 16.1848V15.1929H26.1797Z" fill="#3D6687"/>
<path d="M19.4184 20.4499C18.9158 20.4499 18.4713 20.0883 18.3834 19.5762C18.2853 19.004 18.6697 18.4605 19.2419 18.3623L21.0146 18.0583C21.5869 17.96 22.1303 18.3445 22.2285 18.9167C22.3266 19.4889 21.9422 20.0325 21.37 20.1306L19.5973 20.4346C19.5372 20.4449 19.4773 20.4499 19.4184 20.4499Z" fill="#D4145A"/>
</g>
</g>
</g>
</g>
<defs>
<clipPath id="clip0_1_7229">
<rect width="36" height="36" fill="white" transform="translate(0 0.44043)"/>
</clipPath>
<clipPath id="clip1_1_7229">
<rect width="36" height="36" fill="white" transform="translate(0 0.44043)"/>
</clipPath>
<clipPath id="clip2_1_7229">
<rect width="36" height="36" fill="white" transform="translate(0 0.44043)"/>
</clipPath>
</defs>
</svg>
