<svg width="48" height="47" viewBox="0 0 48 47" fill="none" xmlns="http://www.w3.org/2000/svg">
<mask id="mask0_1_6965" style="mask-type:luminance" maskUnits="userSpaceOnUse" x="0" y="0" width="48" height="46">
<path d="M48 0.69043H0V45.9862H48V0.69043Z" fill="white"/>
</mask>
<g mask="url(#mask0_1_6965)">
<mask id="mask1_1_6965" style="mask-type:luminance" maskUnits="userSpaceOnUse" x="0" y="0" width="48" height="46">
<path d="M44.8195 33.4759C42.7519 38.3816 38.9279 41.9974 33.3475 44.3232C27.7671 46.6491 22.5869 46.2972 17.8069 43.2678C13.0269 40.2384 8.40256 36.6226 3.93381 32.4204C-0.534934 28.2183 -0.979586 23.6253 2.59986 18.6413C6.1793 13.6574 10.8037 9.04486 16.473 4.80364C22.1423 0.56242 28.8232 -0.326867 36.5156 2.13577C44.2081 4.59842 48.0321 9.21099 47.9876 15.9735C47.9432 22.736 46.8871 28.5701 44.8195 33.4759Z" fill="white"/>
</mask>
<g mask="url(#mask1_1_6965)">
<path d="M44.8195 33.4759C42.7519 38.3816 38.9279 41.9974 33.3475 44.3232C27.7671 46.6491 22.5869 46.2972 17.8069 43.2678C13.0269 40.2384 8.40256 36.6226 3.93381 32.4204C-0.534934 28.2183 -0.979586 23.6253 2.59986 18.6413C6.1793 13.6574 10.8037 9.04486 16.473 4.80364C22.1423 0.56242 28.8232 -0.326867 36.5156 2.13577C44.2081 4.59842 48.0321 9.21099 47.9876 15.9735C47.9432 22.736 46.8871 28.5701 44.8195 33.4759Z" fill="#E3F0FF"/>
</g>
</g>
<path d="M29.6484 15.2216H26.8203V9.56543H27.7656C28.2835 9.56543 28.7031 9.14568 28.7031 8.62793C28.7031 8.11018 28.2835 7.69043 27.7656 7.69043H20.2344C19.7166 7.69043 19.2969 8.11018 19.2969 8.62793C19.2969 9.14568 19.7166 9.56543 20.2344 9.56543H21.1798V15.2216H18.3517C16.7965 15.2216 15.5312 16.4868 15.5312 18.042V33.1045C15.5312 34.4048 16.4161 35.5018 17.615 35.8266C17.4859 36.1496 17.4142 36.5015 17.4142 36.8701C17.4142 38.4252 18.6793 39.6904 20.2344 39.6904C21.7895 39.6904 23.0548 38.4252 23.0548 36.8701C23.0548 36.5386 22.9968 36.2205 22.8912 35.9248H25.1087C25.0032 36.2205 24.9452 36.5386 24.9452 36.8701C24.9452 38.4252 26.2105 39.6904 27.7656 39.6904C29.3207 39.6904 30.5859 38.4252 30.5859 36.8701C30.5859 36.5015 30.5141 36.1496 30.3849 35.8266C31.5839 35.5018 32.4688 34.4048 32.4688 33.1045V18.042C32.4688 16.4868 31.2036 15.2216 29.6484 15.2216ZM23.0548 9.56543H24.9453V15.2216H23.0548V9.56543ZM21.1798 36.8701C21.1798 37.3913 20.7556 37.8154 20.2344 37.8154C19.7131 37.8154 19.2892 37.3913 19.2892 36.8701C19.2892 36.3488 19.7131 35.9248 20.2344 35.9248C20.7556 35.9248 21.1798 36.3488 21.1798 36.8701ZM27.7656 37.8154C27.2444 37.8154 26.8203 37.3913 26.8203 36.8701C26.8203 36.3488 27.2444 35.9248 27.7656 35.9248C28.287 35.9248 28.7109 36.3488 28.7109 36.8701C28.7109 37.3913 28.287 37.8154 27.7656 37.8154ZM30.5938 33.1045C30.5938 33.6257 30.1697 34.0498 29.6484 34.0498H18.3517C17.8304 34.0498 17.4062 33.6257 17.4062 33.1045V18.042C17.4062 17.5207 17.8304 17.0966 18.3517 17.0966H29.6484C30.1697 17.0966 30.5938 17.5207 30.5938 18.042V33.1045Z" fill="black"/>
<path d="M20.2344 18.9873C19.7166 18.9873 19.2969 19.407 19.2969 19.9248V31.2216C19.2969 31.7394 19.7166 32.1592 20.2344 32.1592C20.7521 32.1592 21.1719 31.7394 21.1719 31.2216V19.9248C21.1719 19.407 20.7521 18.9873 20.2344 18.9873Z" fill="black"/>
<path d="M24 18.9873C23.4822 18.9873 23.0625 19.407 23.0625 19.9248V31.2216C23.0625 31.7394 23.4822 32.1592 24 32.1592C24.5178 32.1592 24.9375 31.7394 24.9375 31.2216V19.9248C24.9375 19.407 24.5178 18.9873 24 18.9873Z" fill="black"/>
<path d="M27.7656 18.9873C27.2479 18.9873 26.8281 19.407 26.8281 19.9248V31.2216C26.8281 31.7394 27.2479 32.1592 27.7656 32.1592C28.2834 32.1592 28.7031 31.7394 28.7031 31.2216V19.9248C28.7031 19.407 28.2834 18.9873 27.7656 18.9873Z" fill="black"/>
</svg>
