<svg width="16" height="13" viewBox="0 0 16 13" fill="none" xmlns="http://www.w3.org/2000/svg">
<g clip-path="url(#clip0_1_7526)">
<path d="M14.5938 0.464844H1.40625C0.629281 0.464844 0 1.09803 0 1.87109V10.3086C0 11.0862 0.633906 11.7148 1.40625 11.7148H14.5938C15.3642 11.7148 16 11.0889 16 10.3086V1.87109C16 1.0994 15.3732 0.464844 14.5938 0.464844ZM14.3968 1.40234C14.1095 1.68812 9.16509 6.6065 8.99438 6.77631C8.72875 7.04193 8.37562 7.18818 8 7.18818C7.62437 7.18818 7.27125 7.0419 7.00475 6.77543C6.88994 6.66121 2.00009 1.79715 1.60319 1.40234H14.3968ZM0.9375 10.1177V2.0625L4.98869 6.09234L0.9375 10.1177ZM1.60378 10.7773L5.65338 6.7535L6.34272 7.43921C6.78541 7.8819 7.37397 8.12568 8 8.12568C8.62603 8.12568 9.21459 7.8819 9.65641 7.44009L10.3466 6.7535L14.3962 10.7773H1.60378ZM15.0625 10.1177L11.0113 6.09234L15.0625 2.0625V10.1177Z" fill="white"/>
</g>
<defs>
<clipPath id="clip0_1_7526">
<rect width="16" height="12" fill="white" transform="translate(0 0.0898438)"/>
</clipPath>
</defs>
</svg>
