<svg width="48" height="47" viewBox="0 0 48 47" fill="none" xmlns="http://www.w3.org/2000/svg">
<mask id="mask0_1_6983" style="mask-type:luminance" maskUnits="userSpaceOnUse" x="0" y="0" width="48" height="46">
<path d="M48 0.69043H0V45.9862H48V0.69043Z" fill="white"/>
</mask>
<g mask="url(#mask0_1_6983)">
<mask id="mask1_1_6983" style="mask-type:luminance" maskUnits="userSpaceOnUse" x="0" y="0" width="48" height="46">
<path d="M44.8195 33.4759C42.7519 38.3816 38.9279 41.9974 33.3475 44.3232C27.7671 46.6491 22.5869 46.2972 17.8069 43.2678C13.0269 40.2384 8.40256 36.6226 3.93381 32.4204C-0.534934 28.2183 -0.979586 23.6253 2.59986 18.6413C6.1793 13.6574 10.8037 9.04486 16.473 4.80364C22.1423 0.56242 28.8232 -0.326867 36.5156 2.13577C44.2081 4.59842 48.0321 9.21099 47.9876 15.9735C47.9432 22.736 46.8871 28.5701 44.8195 33.4759Z" fill="white"/>
</mask>
<g mask="url(#mask1_1_6983)">
<path d="M44.8195 33.4759C42.7519 38.3816 38.9279 41.9974 33.3475 44.3232C27.7671 46.6491 22.5869 46.2972 17.8069 43.2678C13.0269 40.2384 8.40256 36.6226 3.93381 32.4204C-0.534934 28.2183 -0.979586 23.6253 2.59986 18.6413C6.1793 13.6574 10.8037 9.04486 16.473 4.80364C22.1423 0.56242 28.8232 -0.326867 36.5156 2.13577C44.2081 4.59842 48.0321 9.21099 47.9876 15.9735C47.9432 22.736 46.8871 28.5701 44.8195 33.4759Z" fill="#F6F3FC"/>
</g>
</g>
<mask id="mask2_1_6983" style="mask-type:luminance" maskUnits="userSpaceOnUse" x="8" y="7" width="32" height="33">
<path d="M40 7.69043H8V39.6904H40V7.69043Z" fill="white"/>
</mask>
<g mask="url(#mask2_1_6983)">
<path d="M23.9999 7.69043C17.3643 7.69043 11.9658 13.0888 11.9658 19.7244V27.6564C11.9658 34.2919 17.3643 39.6903 23.9999 39.6903C30.6354 39.6903 36.0339 34.2919 36.0339 27.6564V19.7244C36.0339 13.0888 30.6354 7.69043 23.9999 7.69043ZM34.1581 27.6564C34.1581 33.2576 29.6011 37.8146 23.9999 37.8146C18.3986 37.8146 13.8416 33.2576 13.8416 27.6564V19.7244C13.8416 14.1232 18.3986 9.56621 23.9999 9.56621C29.6011 9.56621 34.1581 14.1232 34.1581 19.7244V27.6564Z" fill="black"/>
<path d="M32.2827 19.7243C32.2827 15.1574 28.5672 11.4419 24.0002 11.4419C19.4333 11.4419 15.7178 15.1574 15.7178 19.7243V27.6563C15.7178 32.2232 19.4333 35.9387 24.0002 35.9387C27.3585 35.9387 30.2563 33.9295 31.555 31.0501C31.5557 31.0485 31.5563 31.047 31.5571 31.0454C32.0231 30.0103 32.2828 28.8631 32.2828 27.6563V25.4023C32.2828 25.397 32.2828 25.3918 32.2828 25.3865L32.2827 19.7243ZM24.1928 26.6167C24.1978 25.688 24.955 24.9339 25.8848 24.9339C26.7109 24.9339 27.4295 25.548 27.5564 26.3622C27.6149 26.7377 27.8941 27.0407 28.2636 27.1297C28.6327 27.2186 29.0196 27.0759 29.2425 26.7682C29.5177 26.3884 29.941 26.1684 30.4069 26.1609V27.6564C30.4069 28.3871 30.2836 29.0895 30.0572 29.7443H23.1373C22.545 29.7443 22.0631 29.2624 22.0631 28.6701C22.0631 28.0778 22.545 27.5959 23.1373 27.5959H23.2557C23.5063 27.5959 23.7465 27.4956 23.9227 27.3174C24.0988 27.1392 24.1964 26.8979 24.1935 26.6473C24.1934 26.6376 24.1931 26.6277 24.1928 26.6167ZM24.0002 13.3177C27.4057 13.3177 30.1987 15.9885 30.3954 19.3455H17.6051C17.8018 15.9885 20.5948 13.3177 24.0002 13.3177ZM24.0002 34.063C20.4676 34.063 17.5936 31.189 17.5936 27.6564V21.2213H30.4069V24.2852C29.8655 24.2892 29.339 24.4253 28.8706 24.673C28.6896 24.3966 28.4699 24.1444 28.2162 23.9252C27.5689 23.3661 26.741 23.0582 25.8848 23.0582C24.198 23.0582 22.7807 24.2349 22.411 25.8106C21.1345 26.1351 20.1873 27.2941 20.1873 28.6702C20.1873 30.2968 21.5107 31.6201 23.1373 31.6201H29.03C27.8558 33.1069 26.0376 34.063 24.0002 34.063Z" fill="black"/>
<path d="M22.935 17.47H25.0647C25.5826 17.47 26.0026 17.0501 26.0026 16.5321C26.0026 16.0142 25.5826 15.5942 25.0647 15.5942H22.935C22.417 15.5942 21.9971 16.0142 21.9971 16.5321C21.9971 17.0501 22.417 17.47 22.935 17.47Z" fill="black"/>
</g>
</svg>
