<svg width="21" height="16" viewBox="0 0 21 16" fill="none" xmlns="http://www.w3.org/2000/svg">
<path d="M8.82393 11.5456L13.9225 8.59838L8.82393 5.65122V11.5456ZM20.1803 3.85346C20.308 4.31518 20.3964 4.93408 20.4554 5.71999C20.5242 6.5059 20.5536 7.18375 20.5536 7.77318L20.6126 8.59838C20.6126 10.7498 20.4554 12.3315 20.1803 13.3433C19.9347 14.2275 19.3649 14.7973 18.4808 15.0429C18.0191 15.1706 17.1742 15.259 15.8775 15.3179C14.6004 15.3867 13.4313 15.4162 12.3507 15.4162L10.7887 15.4751C6.67251 15.4751 4.10848 15.3179 3.09662 15.0429C2.21247 14.7973 1.64269 14.2275 1.39709 13.3433C1.26938 12.8816 1.18097 12.2627 1.12203 11.4768C1.05326 10.6909 1.02379 10.013 1.02379 9.42359L0.964844 8.59838C0.964844 6.44696 1.12203 4.86532 1.39709 3.85346C1.64269 2.96931 2.21247 2.39953 3.09662 2.15393C3.55834 2.02622 4.4032 1.9378 5.69995 1.87886C6.97705 1.81009 8.14609 1.78062 9.22671 1.78062L10.7887 1.72168C14.9049 1.72168 17.4689 1.87886 18.4808 2.15393C19.3649 2.39953 19.9347 2.96931 20.1803 3.85346Z" fill="white"/>
</svg>
